<svg width="648" height="142" viewBox="0 0 648 142" fill="none" xmlns="http://www.w3.org/2000/svg">
<g filter="url(#filter0_d_5499_693)">
<path d="M576.973 134C539.983 134 509.9 103.946 509.9 66.9977C509.9 49.0941 516.837 32.2674 529.536 19.6213C542.225 6.96151 559.06 0 576.973 0C613.921 0 644 30.0272 644 66.9796C644.005 103.946 613.967 134 576.973 134ZM576.973 23.4656C565.329 23.4656 554.391 27.9778 546.143 36.189C537.905 44.4273 533.377 55.3649 533.377 66.9841C533.377 91.004 552.931 110.534 576.968 110.534C600.964 110.534 620.559 91.004 620.559 67.0023C620.532 42.9914 600.973 23.4656 576.973 23.4656Z" fill="#21052D"/>
<path d="M253.269 132.319C216.321 132.319 186.242 102.251 186.242 65.3164V13.4868C186.242 7.01146 191.466 1.7676 197.953 1.7676C204.45 1.7676 209.715 7.01146 209.715 13.4868V65.2983C209.715 89.3 229.274 108.835 253.269 108.835C277.306 108.835 296.865 89.3 296.865 65.2983V13.4096C296.865 6.92058 302.129 1.68127 308.585 1.68127C315.082 1.68127 320.338 6.92058 320.338 13.4096V65.3027C320.338 102.251 290.259 132.319 253.269 132.319Z" fill="#21052D"/>
<path d="M38.3981 132.36C36.4204 132.36 34.4109 131.869 32.5787 130.865C26.7548 127.652 24.6225 120.304 27.8414 114.483L86.5126 7.8703C88.6312 4.00784 92.7048 1.64038 97.0784 1.64038C97.1148 1.64038 97.1148 1.64038 97.1148 1.64038C101.479 1.64038 105.548 4.00784 107.671 7.8703L166.456 114.465C169.662 120.304 167.538 127.638 161.719 130.865C155.854 134.054 148.507 131.964 145.293 126.125L97.1102 38.7018L49.0003 126.102C46.7589 130.115 42.649 132.36 38.3981 132.36Z" fill="#21052D"/>
<path d="M478.898 133.773C475.961 133.773 472.956 132.71 470.66 130.492L357.027 23.9701C352.185 19.3987 351.913 11.7692 356.468 6.90255C361.024 2.04948 368.675 1.80865 373.567 6.37998L487.172 112.929C492.019 117.51 492.246 125.139 487.695 129.97C485.317 132.51 482.094 133.773 478.898 133.773Z" fill="#21052D"/>
<path d="M365.356 133.85C362.137 133.85 358.932 132.578 356.545 130.043C351.99 125.194 352.222 117.56 357.068 112.993L470.601 6.30759C475.434 1.75444 483.067 1.9771 487.659 6.83016C492.205 11.6559 491.991 19.3081 487.14 23.8749L373.599 130.561C371.285 132.764 368.298 133.85 365.356 133.85Z" fill="#21052D"/>
<path d="M218.032 35.1797L219.251 32.0838C220.266 29.5132 218.63 26.6631 215.878 26.2049L212.561 25.6572C209.538 25.1543 206.435 25.6349 203.717 27.0096L185.802 36.1185C164.989 46.7027 145.946 60.4164 129.352 76.7678C128.077 78.0307 129.295 80.1543 131.033 79.7072C153.708 73.996 175.356 64.8312 195.211 52.5593L212.302 41.9974C214.896 40.388 216.904 37.9962 218.01 35.1685L218.032 35.1797Z" fill="#56CCF2"/>
<path d="M193.428 36.8003L140.802 20.2478C136.842 19.0072 133.819 23.8131 136.696 26.7749L162.958 53.9228L193.428 36.8003Z" fill="#56CCF2"/>
<path d="M198.539 45.7305L185.881 98.9869C184.934 102.988 179.214 103.089 178.12 99.1322L168.068 62.8642L198.539 45.7416V45.7305Z" fill="#56CCF2"/>
<path d="M142.235 69.3354L123.079 63.3112C121.635 62.8529 120.541 64.6077 121.59 65.6918L131.145 75.5719L142.235 69.3354Z" fill="#56CCF2"/>
<path d="M144.096 72.5764L139.482 91.9566C139.132 93.4096 137.056 93.4543 136.65 92.0125L132.995 78.813L144.084 72.5764H144.096Z" fill="#56CCF2"/>
<path d="M128.085 80.1895C128.085 80.1895 47.9321 122.612 27.0524 112.475C6.17259 102.326 45.8677 81.1151 45.8677 81.1151C45.8677 81.1151 -14.1798 105.419 9.5497 127.185C36.2973 151.728 128.096 80.1895 128.096 80.1895H128.085Z" fill="#56CCF2"/>
</g>
<defs>
<filter id="filter0_d_5499_693" x="0" y="0" width="648" height="142" filterUnits="userSpaceOnUse" color-interpolation-filters="sRGB">
<feFlood flood-opacity="0" result="BackgroundImageFix"/>
<feColorMatrix in="SourceAlpha" type="matrix" values="0 0 0 0 0 0 0 0 0 0 0 0 0 0 0 0 0 0 127 0" result="hardAlpha"/>
<feOffset dy="4"/>
<feGaussianBlur stdDeviation="2"/>
<feComposite in2="hardAlpha" operator="out"/>
<feColorMatrix type="matrix" values="0 0 0 0 0 0 0 0 0 0 0 0 0 0 0 0 0 0 0.25 0"/>
<feBlend mode="normal" in2="BackgroundImageFix" result="effect1_dropShadow_5499_693"/>
<feBlend mode="normal" in="SourceGraphic" in2="effect1_dropShadow_5499_693" result="shape"/>
</filter>
</defs>
</svg>
